<?xml version="1.0" standalone="no"?>
<!DOCTYPE svg PUBLIC "-//W3C//DTD SVG 20010904//EN"
 "http://www.w3.org/TR/2001/REC-SVG-20010904/DTD/svg10.dtd">
<svg version="1.0" xmlns="http://www.w3.org/2000/svg"
 width="447.000000pt" height="447.000000pt" viewBox="0 0 447.000000 447.000000"
 preserveAspectRatio="xMidYMid meet">

<g transform="translate(0.000000,447.000000) scale(0.100000,-0.100000)"
fill="#000000" stroke="none">
<path d="M2092 4358 c3 -89 5 -103 21 -106 15 -3 17 6 18 70 l1 73 21 -68 c18
-57 24 -67 41 -65 17 2 23 15 35 76 7 40 15 71 17 70 1 -2 4 -30 5 -63 3 -71
7 -85 25 -85 11 0 14 21 14 100 l0 100 -34 0 c-34 0 -34 0 -46 -65 -7 -36 -16
-63 -20 -60 -4 2 -15 32 -24 65 -16 56 -19 60 -47 60 l-30 0 3 -102z"/>
<path d="M1916 4443 l-49 -4 7 -76 c10 -113 16 -134 35 -131 12 3 15 13 13 46
-3 36 -1 42 17 42 11 0 35 -16 54 -36 24 -25 40 -35 57 -32 23 3 23 4 -13 42
-37 39 -37 39 -17 58 11 10 20 28 20 38 0 26 -35 61 -57 58 -10 -1 -40 -3 -67
-5z m81 -49 c8 -21 -6 -32 -47 -36 -32 -3 -35 0 -38 25 -3 26 -1 27 38 27 28
0 43 -5 47 -16z"/>
<path d="M2360 4361 c-51 -104 -50 -103 -27 -107 11 -1 22 7 29 22 12 26 18
27 66 18 21 -4 32 -14 36 -30 4 -16 14 -24 27 -24 15 0 19 5 15 18 -47 169
-57 192 -79 192 -19 0 -31 -16 -67 -89z m79 -17 c1 -17 -4 -20 -24 -16 -30 5
-29 4 -8 45 15 29 17 30 24 12 4 -11 8 -30 8 -41z"/>
<path d="M2530 4427 c0 -9 12 -18 30 -22 24 -5 29 -11 25 -28 -27 -123 -25
-156 6 -157 3 0 12 37 20 83 l14 82 33 -1 c24 -2 32 2 32 16 0 13 -11 19 -51
24 -29 4 -65 10 -80 13 -22 4 -29 2 -29 -10z"/>
<path d="M1694 4396 c-89 -39 -56 -196 41 -196 42 0 90 22 99 45 20 54 -2 128
-45 151 -34 17 -55 17 -95 0z m81 -41 c44 -43 25 -125 -30 -125 -61 0 -88 117
-32 140 33 13 36 12 62 -15z"/>
<path d="M2726 4383 c-11 -37 -36 -155 -36 -169 0 -9 7 -14 17 -12 13 2 23 27
39 93 11 50 19 93 17 98 -8 14 -32 7 -37 -10z"/>
<path d="M1508 4342 c-26 -9 -50 -20 -53 -24 -10 -10 56 -188 70 -188 21 0 24
11 10 51 -16 43 -20 39 53 64 6 2 12 11 12 20 0 12 -6 14 -27 8 -50 -12 -68
-9 -71 13 -2 17 5 23 43 34 25 7 44 18 42 24 -6 17 -27 16 -79 -2z"/>
<path d="M2818 4343 c-66 -76 -44 -172 45 -188 43 -8 72 6 97 48 47 76 3 157
-83 157 -29 0 -49 -6 -59 -17z m104 -30 c23 -20 23 -56 1 -94 -13 -22 -25 -29
-48 -29 -39 0 -55 16 -55 53 0 72 57 111 102 70z"/>
<path d="M3041 4278 c-5 -13 -23 -54 -40 -91 -36 -81 -35 -73 -16 -81 12 -4
22 10 42 54 14 33 27 59 29 57 2 -1 8 -34 14 -72 10 -61 31 -108 44 -94 2 2
23 44 45 93 32 68 38 92 29 98 -20 12 -22 11 -47 -47 -13 -30 -27 -53 -31 -50
-4 2 -10 36 -14 74 -5 48 -12 71 -22 75 -23 9 -24 8 -33 -16z"/>
<path d="M1360 4281 c0 -5 11 -34 26 -66 l25 -58 -28 18 c-15 10 -45 29 -65
43 -38 25 -75 26 -70 1 9 -39 77 -169 89 -169 19 0 16 24 -7 70 -31 60 -25 63
39 20 58 -40 85 -48 95 -31 10 15 -71 181 -89 181 -8 0 -15 -4 -15 -9z"/>
<path d="M1165 4190 c-8 -12 87 -179 102 -180 25 0 21 19 -23 103 -42 80 -64
102 -79 77z"/>
<path d="M3310 4156 c0 -7 10 -20 21 -28 22 -14 22 -14 -21 -81 -38 -61 -46
-97 -21 -97 5 0 26 26 45 58 58 94 51 88 80 68 24 -15 27 -15 32 -1 4 9 5 17
3 19 -16 12 -126 76 -132 76 -4 0 -7 -6 -7 -14z"/>
<path d="M990 4084 c-19 -14 -41 -29 -49 -33 -10 -6 0 -28 45 -95 50 -76 59
-85 72 -72 13 12 12 18 -8 47 l-23 32 33 27 c45 36 32 59 -16 29 -28 -17 -37
-19 -49 -9 -22 18 -19 25 25 54 23 15 38 31 35 36 -10 15 -27 11 -65 -16z"/>
<path d="M3431 3981 l-61 -80 61 -47 c47 -36 63 -44 72 -35 9 10 6 17 -15 32
-69 51 -69 52 -50 77 l17 22 44 -31 c35 -26 45 -29 52 -18 6 10 2 18 -13 29
-60 41 -64 47 -46 66 16 16 19 15 59 -14 38 -28 59 -33 59 -14 0 7 -104 92
-113 92 -2 0 -32 -36 -66 -79z"/>
<path d="M853 3972 c-30 -4 -71 -45 -79 -77 -15 -61 59 -141 121 -130 43 7 85
57 85 99 0 60 -67 118 -127 108z m51 -53 c35 -27 47 -58 33 -84 -22 -44 -65
-47 -102 -8 -31 35 -33 76 -3 97 30 21 40 20 72 -5z"/>
<path d="M3608 3890 c-25 -15 -58 -74 -58 -104 0 -54 77 -104 119 -77 23 15 6
39 -23 34 -32 -6 -56 12 -56 42 0 32 47 85 74 85 28 0 61 -34 53 -54 -4 -9 1
-20 12 -26 15 -8 20 -5 24 12 7 26 -16 74 -42 88 -25 13 -81 13 -103 0z"/>
<path d="M2305 3813 c-70 -6 -251 -43 -342 -69 -129 -37 -214 -70 -346 -136
-603 -299 -996 -856 -1047 -1482 -40 -486 157 -918 537 -1183 81 -57 307 -164
342 -163 3 0 -26 17 -64 38 -95 50 -128 74 -214 156 -85 82 -141 153 -199 251
-219 374 -244 926 -62 1338 233 525 827 927 1444 977 583 48 1048 -254 1183
-767 35 -134 43 -345 18 -494 -47 -287 -188 -559 -400 -774 -111 -112 -134
-131 -254 -213 -258 -175 -618 -287 -719 -223 -48 31 -56 61 -44 156 8 64 61
360 130 728 l9 47 -158 0 c-89 0 -159 -4 -159 -9 0 -5 -14 -81 -30 -168 -17
-87 -42 -219 -55 -293 -13 -74 -40 -225 -60 -335 -41 -226 -40 -270 13 -348
31 -48 106 -102 160 -117 54 -15 227 -12 343 5 284 43 587 177 819 364 456
367 719 898 720 1456 1 646 -473 1172 -1130 1255 -71 9 -348 11 -435 3z"/>
<path d="M633 3782 c-7 -12 -7 -28 3 -56 8 -21 14 -40 14 -43 0 -2 -22 -1 -48
3 -36 4 -51 2 -60 -8 -10 -13 -1 -17 57 -27 49 -9 75 -19 92 -37 12 -13 28
-24 35 -24 28 0 24 23 -8 53 -26 24 -37 46 -47 89 -14 64 -22 75 -38 50z"/>
<path d="M3741 3712 c-63 -58 -71 -69 -58 -80 12 -10 20 -8 46 14 l32 27 30
-29 30 -29 -30 -27 c-33 -29 -38 -43 -21 -53 10 -6 158 112 159 128 2 19 -32
18 -53 -2 -20 -19 -27 -21 -43 -10 -11 6 -26 21 -33 32 -11 18 -9 24 19 46 25
21 29 29 19 39 -6 6 -14 12 -17 12 -4 -1 -39 -31 -80 -68z"/>
<path d="M488 3613 c-50 -55 -71 -94 -59 -106 9 -9 16 -6 30 12 l18 24 34 -23
c19 -13 47 -34 62 -47 32 -26 52 -29 60 -10 3 8 -21 32 -59 61 -35 26 -64 50
-64 54 0 4 7 17 15 28 13 20 11 34 -5 34 -3 0 -18 -12 -32 -27z"/>
<path d="M3892 3556 c-89 -65 -86 -62 -78 -81 5 -14 14 -11 56 20 28 21 53 36
55 34 2 -2 -8 -31 -21 -63 -26 -65 -28 -74 -15 -95 7 -10 26 0 87 45 44 32 81
59 83 61 2 1 -2 9 -9 17 -10 13 -18 11 -57 -19 -25 -19 -49 -35 -54 -35 -4 0
3 24 16 53 33 75 37 93 23 105 -10 8 -31 -2 -86 -42z"/>
<path d="M346 3404 c-3 -9 -6 -17 -6 -19 0 -4 157 -105 163 -105 10 0 77 112
72 120 -11 18 -23 10 -46 -27 -12 -21 -24 -40 -25 -42 -2 -2 -31 14 -66 36
-35 22 -68 42 -74 46 -7 4 -15 0 -18 -9z"/>
<path d="M3999 3375 c-55 -37 -65 -84 -29 -142 46 -77 190 -32 190 59 0 40
-20 78 -51 94 -40 20 -69 17 -110 -11z m96 -21 c9 -4 21 -18 26 -32 26 -67
-91 -124 -129 -62 -18 29 -6 58 31 81 34 20 46 23 72 13z"/>
<path d="M293 3315 c-7 -19 -11 -16 65 -54 68 -35 79 -49 62 -80 -15 -29 -40
-26 -112 10 -47 24 -63 28 -69 18 -4 -7 -6 -17 -3 -21 10 -16 130 -68 156 -68
37 0 70 48 66 97 -3 34 -8 39 -73 75 -79 43 -83 44 -92 23z"/>
<path d="M4123 3172 c-45 -21 -84 -40 -88 -43 -7 -8 45 -129 56 -129 18 0 18
21 0 62 l-19 44 79 35 c69 31 77 37 66 51 -11 15 -20 12 -94 -20z"/>
<path d="M208 3105 c-15 -8 -31 -30 -37 -48 -19 -58 10 -104 80 -126 63 -20
123 21 123 85 0 42 -27 75 -46 56 -10 -10 -10 -17 0 -32 18 -29 15 -48 -10
-64 -41 -26 -118 9 -118 54 0 19 25 50 41 50 5 0 9 9 9 20 0 23 -6 24 -42 5z"/>
<path d="M1391 2925 l-119 -117 71 -68 c40 -37 88 -82 107 -99 l35 -31 529 0
c291 1 530 -1 533 -3 2 -2 -6 -51 -17 -108 -16 -87 -138 -751 -211 -1153 -11
-60 -18 -110 -16 -113 6 -5 349 263 358 280 4 6 14 53 22 102 9 50 46 252 82
450 37 198 74 402 83 453 l16 92 91 1 c49 1 97 1 106 0 8 -1 31 9 50 22 143
98 235 161 242 167 12 11 -143 241 -157 233 -6 -4 -46 -30 -88 -60 l-77 -53
-694 0 -693 0 -30 31 c-16 17 -46 44 -66 61 l-38 30 -119 -117z"/>
<path d="M4164 3001 c-44 -27 -58 -71 -38 -120 48 -121 235 -50 194 74 -6 19
-21 42 -33 50 -29 21 -86 19 -123 -4z m110 -37 c9 -8 16 -28 16 -44 0 -22 -7
-33 -30 -45 -57 -30 -110 -11 -110 40 0 50 89 85 124 49z"/>
<path d="M218 2874 c-108 -14 -118 -18 -117 -42 0 -17 148 -132 169 -132 16 0
12 32 -6 45 -13 9 -15 21 -9 53 6 36 10 42 31 42 23 0 40 19 32 38 -1 4 -47 3
-100 -4z m12 -43 c0 -18 -12 -41 -22 -41 -5 0 -21 9 -34 19 l-25 20 28 4 c50
7 53 7 53 -2z"/>
<path d="M4211 2764 c-26 -21 -31 -33 -31 -67 0 -25 9 -56 21 -76 18 -29 24
-33 51 -27 17 3 34 6 39 6 10 0 12 34 3 68 -8 30 -34 28 -34 -2 0 -34 -16 -41
-34 -14 -37 53 -1 102 71 96 48 -4 69 -37 48 -78 -9 -17 -10 -31 -4 -41 8 -12
13 -10 29 10 24 28 25 62 5 101 -19 37 -43 50 -94 50 -28 0 -48 -8 -70 -26z"/>
<path d="M77 2723 c-9 -14 -29 -125 -24 -129 3 -3 43 -12 88 -20 46 -8 90 -16
97 -19 7 -3 12 5 12 19 0 20 -7 24 -40 30 l-40 6 7 45 c5 36 3 45 -9 45 -10 0
-18 -14 -22 -40 -5 -35 -10 -40 -32 -40 -25 0 -25 1 -19 55 5 36 4 55 -3 55
-6 0 -13 -3 -15 -7z"/>
<path d="M1143 2465 l-118 -115 102 -96 102 -96 135 1 c74 1 137 -2 140 -7 6
-10 -9 -104 -70 -431 -33 -180 -35 -206 -23 -226 8 -13 66 -79 129 -148 l115
-125 17 86 c9 48 47 254 84 457 37 204 72 376 77 383 8 9 64 12 239 12 127 -1
231 0 233 2 1 2 12 57 24 123 12 66 24 132 27 148 l6 27 -484 0 -483 0 -60 60
c-33 32 -63 59 -67 60 -4 0 -60 -52 -125 -115z"/>
<path d="M4347 2540 c-33 -27 -62 -41 -93 -46 -34 -5 -44 -10 -42 -23 3 -12
13 -15 45 -13 30 3 56 -4 103 -28 34 -17 64 -30 66 -28 2 2 1 13 -2 25 -4 12
-22 27 -47 37 l-42 17 38 30 c20 17 37 40 37 50 0 27 -8 24 -63 -21z"/>
<path d="M4155 1641 c-5 -18 0 -30 25 -56 35 -36 35 -35 -35 -50 -27 -5 -34
-15 -68 -98 -20 -51 -37 -95 -37 -99 0 -18 28 -6 38 16 l11 25 78 -34 c56 -24
80 -30 85 -22 13 21 10 24 -67 57 -41 18 -75 37 -75 42 0 5 5 19 11 30 8 15 8
22 -1 28 -6 4 16 14 53 23 57 15 70 15 105 3 36 -13 41 -13 46 1 3 8 6 16 6
18 0 2 -20 11 -45 21 -25 9 -45 19 -45 23 0 3 -18 26 -39 50 -37 43 -39 44
-46 22z"/>
<path d="M218 1526 c-58 -23 -78 -36 -78 -50 0 -14 5 -17 23 -13 77 20 72 21
84 -18 l12 -37 -40 -16 c-41 -16 -44 -19 -31 -39 6 -10 30 -4 97 22 48 19 90
37 92 39 2 2 1 10 -3 19 -5 14 -10 14 -44 2 l-38 -14 -15 37 -15 37 38 18 c27
12 37 22 34 32 -8 20 -27 17 -116 -19z"/>
<path d="M320 1315 c-58 -5 -104 -13 -102 -17 1 -5 2 -12 2 -18 0 -5 14 -10
30 -10 25 0 33 -6 46 -34 15 -31 15 -36 1 -56 -12 -17 -13 -28 -6 -42 8 -16
18 -8 79 61 104 117 98 130 -50 116z m46 -64 c-23 -22 -28 -24 -36 -11 -16 26
-11 39 18 42 42 6 46 -2 18 -31z"/>
<path d="M4010 1293 c1 -26 169 -110 181 -91 5 7 9 15 9 18 0 7 -167 90 -180
90 -6 0 -10 -8 -10 -17z"/>
<path d="M3993 1222 c-28 -4 -63 -52 -63 -84 0 -27 28 -58 52 -58 9 0 35 16
58 35 33 28 45 33 56 24 8 -6 14 -17 14 -24 0 -16 -30 -42 -55 -47 -11 -2 -21
-11 -23 -21 -6 -31 52 -22 82 14 28 33 35 89 14 107 -33 25 -55 22 -102 -15
-33 -25 -50 -33 -57 -26 -15 15 6 52 37 63 39 15 30 39 -13 32z"/>
<path d="M407 1144 c-71 -46 -85 -59 -76 -71 10 -11 15 -11 35 2 13 8 35 22
49 31 14 9 28 14 31 11 3 -3 -8 -32 -25 -65 -29 -58 -32 -92 -8 -92 15 0 167
101 167 111 0 22 -25 18 -71 -11 -27 -18 -51 -31 -53 -29 -2 2 10 33 26 68 21
44 27 69 21 82 -7 17 -16 14 -96 -37z"/>
<path d="M3848 1028 c-66 -71 -67 -68 22 -132 84 -60 95 -64 103 -42 4 10 -6
23 -28 36 -54 34 -24 67 49 56 25 -4 40 -1 52 12 17 16 15 17 -38 20 -52 3
-55 4 -51 26 6 27 -27 66 -54 66 -9 0 -34 -19 -55 -42z m70 -11 c8 -10 6 -21
-8 -45 -22 -35 -27 -37 -52 -18 -16 12 -16 15 5 44 24 34 39 39 55 19z"/>
<path d="M533 980 c-38 -23 -53 -48 -53 -90 0 -72 74 -119 136 -87 48 25 69
55 69 99 0 33 -6 45 -33 69 -38 34 -74 37 -119 9z m107 -39 c17 -33 11 -58
-21 -85 -35 -30 -65 -33 -91 -9 -25 23 -22 52 9 85 33 34 86 39 103 9z"/>
<path d="M3716 869 l-47 -52 73 -68 73 -67 55 54 c44 44 52 56 41 66 -10 11
-20 5 -49 -29 l-37 -42 -24 20 -24 20 37 38 c31 32 35 40 23 50 -12 9 -21 4
-47 -29 -31 -39 -33 -40 -51 -24 -18 16 -17 18 16 59 38 46 42 55 21 55 -7 0
-35 -23 -60 -51z"/>
<path d="M669 790 c-59 -55 -71 -71 -60 -79 17 -11 58 18 124 87 31 32 35 41
24 50 -11 9 -29 -3 -88 -58z"/>
<path d="M3641 786 c-10 -12 -6 -28 18 -83 16 -37 28 -69 27 -70 -1 -2 -33 14
-70 33 -58 31 -70 34 -82 22 -12 -12 -1 -21 81 -63 86 -46 95 -49 110 -34 15
14 13 24 -24 109 -23 51 -43 95 -45 97 -2 2 -9 -3 -15 -11z"/>
<path d="M792 672 c-50 -26 -91 -51 -89 -57 2 -5 19 -10 38 -10 19 0 47 -8 63
-18 24 -16 27 -23 22 -52 -7 -36 17 -58 29 -27 39 95 64 187 54 199 -15 17
-11 19 -117 -35z m67 -40 c-13 -37 -16 -38 -41 -15 -18 16 -18 18 14 34 18 9
34 16 36 15 1 -2 -3 -17 -9 -34z"/>
<path d="M3483 652 c-9 -6 3 -28 43 -77 71 -90 69 -89 88 -78 13 7 6 21 -45
86 -64 80 -66 82 -86 69z"/>
<path d="M962 578 c-84 -116 -83 -115 -67 -128 16 -13 29 -4 56 43 19 32 39 2
39 -59 0 -43 4 -55 20 -64 19 -10 20 -8 20 44 0 49 2 54 20 49 28 -7 60 24 60
57 0 22 -12 37 -55 69 l-54 41 -39 -52z m106 -58 c-4 -22 -39 -23 -66 -2 -21
16 -21 19 -7 40 l16 22 30 -22 c16 -12 28 -29 27 -38z"/>
<path d="M3425 600 c-4 -6 7 -32 24 -58 16 -25 28 -48 27 -50 -2 -2 -31 8 -65
22 -111 47 -119 34 -45 -73 30 -45 59 -81 64 -81 22 0 19 24 -10 66 -17 26
-29 48 -27 51 3 2 30 -8 62 -22 106 -47 118 -26 44 80 -53 76 -62 84 -74 65z"/>
<path d="M3253 492 c-10 -6 -4 -25 23 -75 36 -69 38 -101 6 -109 -30 -8 -41 2
-78 68 -36 64 -50 76 -60 50 -6 -15 59 -135 80 -148 38 -25 126 21 126 65 0
24 -63 150 -76 154 -5 1 -15 -1 -21 -5z"/>
<path d="M1154 476 c-34 -15 -64 -68 -64 -114 0 -58 87 -103 134 -69 16 12 16
14 2 26 -13 11 -19 11 -31 1 -26 -22 -65 3 -65 41 0 76 86 123 113 62 14 -34
29 -45 41 -33 17 17 -15 72 -50 86 -40 17 -41 17 -80 0z"/>
<path d="M1297 323 c-21 -48 -37 -91 -37 -95 0 -5 9 -8 19 -8 13 0 23 11 31
35 13 39 14 39 59 24 35 -12 38 -24 17 -65 -16 -30 -12 -47 11 -42 14 3 83
148 83 174 0 28 -26 19 -45 -16 -20 -37 -20 -37 -54 -23 -29 12 -32 17 -27 41
12 49 11 56 -4 59 -11 3 -27 -22 -53 -84z"/>
<path d="M1526 331 c-8 -12 -66 -174 -66 -183 0 -4 8 -8 19 -8 14 0 25 20 50
88 17 48 31 90 31 94 0 10 -29 18 -34 9z"/>
<path d="M2917 332 c-5 -7 48 -151 66 -179 5 -8 24 -5 69 13 72 28 69 26 59
42 -6 10 -17 10 -50 -4 -25 -10 -46 -13 -51 -8 -5 5 -20 38 -33 74 -23 59 -47
84 -60 62z"/>
<path d="M1580 295 c0 -8 9 -15 20 -15 31 0 33 -21 11 -98 -25 -84 -25 -79 -1
-85 11 -3 20 0 20 5 0 6 9 42 21 80 20 68 21 69 51 66 59 -6 41 20 -27 41 -80
25 -95 26 -95 6z"/>
<path d="M2789 293 c-14 -3 -19 -25 -26 -106 -5 -56 -7 -105 -5 -110 7 -16 42
15 42 37 0 21 6 25 41 31 33 6 44 4 51 -9 10 -17 48 -22 48 -6 0 11 -119 164
-129 166 -3 1 -13 0 -22 -3z m46 -79 c14 -22 15 -28 4 -35 -27 -17 -39 -9 -39
26 0 42 11 45 35 9z"/>
<path d="M1746 178 c-23 -118 -24 -114 41 -127 74 -14 93 -14 93 3 0 9 -16 16
-42 20 -59 9 -72 19 -64 49 5 23 8 24 43 16 54 -12 73 -11 73 5 0 9 -18 17
-47 22 -40 8 -49 13 -51 33 -4 23 -3 23 57 16 50 -6 61 -4 61 8 0 9 -19 18
-57 26 -92 18 -88 21 -107 -71z"/>
<path d="M2552 239 c-28 -8 -33 -14 -29 -32 3 -12 11 -51 17 -87 14 -86 16
-91 35 -84 12 5 15 17 13 47 -4 53 12 56 60 13 36 -33 82 -48 82 -27 0 5 -16
23 -36 40 -32 28 -34 33 -20 47 19 18 21 65 4 82 -14 14 -79 14 -126 1z m96
-46 c3 -18 -3 -24 -30 -31 -36 -10 -43 -7 -52 25 -6 17 -2 22 16 26 43 9 63 3
66 -20z"/>
<path d="M1985 216 c-17 -7 -36 -25 -43 -40 -17 -37 -15 -97 3 -124 31 -44
122 -45 146 -1 14 27 -15 37 -41 14 -46 -42 -93 8 -74 82 8 33 13 38 41 41 23
2 35 -2 44 -16 11 -18 50 -20 49 -3 -1 15 -29 41 -54 51 -33 12 -34 12 -71 -4z"/>
<path d="M2453 223 c-9 -3 -11 -26 -6 -83 5 -72 4 -79 -15 -89 -46 -24 -72 14
-72 105 0 47 -2 54 -20 54 -17 0 -20 -7 -20 -42 1 -68 17 -131 36 -145 36 -26
118 -8 130 29 7 22 -5 167 -15 172 -3 2 -11 1 -18 -1z"/>
<path d="M2130 195 c0 -10 10 -15 33 -15 l32 0 -3 -85 c-3 -80 -2 -85 17 -85
20 0 21 6 21 85 l0 85 35 0 c24 0 35 5 35 15 0 12 -16 15 -85 15 -69 0 -85 -3
-85 -15z"/>
</g>
</svg>
